<?xml version="1.0" encoding="UTF-8" standalone="no"?>
<svg
   xmlns:dc="http://purl.org/dc/elements/1.1/"
   xmlns:cc="http://creativecommons.org/ns#"
   xmlns:rdf="http://www.w3.org/1999/02/22-rdf-syntax-ns#"
   xmlns:svg="http://www.w3.org/2000/svg"
   xmlns="http://www.w3.org/2000/svg"
   xmlns:sodipodi="http://sodipodi.sourceforge.net/DTD/sodipodi-0.dtd"
   xmlns:inkscape="http://www.inkscape.org/namespaces/inkscape"
   viewBox="0 0 1000 500"
   aria-labelledby="title"
   aria-describedby="desc"
   role="img"
   version="1.1"
   id="svg10"
   sodipodi:docname="woocommerce-banner-inverse.svg"
   inkscape:version="0.92.4 (5da689c313, 2019-01-14)"
   width="1000"
   height="500">
  <metadata
     id="metadata16">
    <rdf:RDF>
      <cc:Work
         rdf:about="">
        <dc:format>image/svg+xml</dc:format>
        <dc:type
           rdf:resource="http://purl.org/dc/dcmitype/StillImage" />
        <dc:title>Ticket</dc:title>
      </cc:Work>
    </rdf:RDF>
  </metadata>
  <defs
     id="defs14" />
  <sodipodi:namedview
     pagecolor="#ffffff"
     bordercolor="#666666"
     borderopacity="1"
     objecttolerance="10"
     gridtolerance="10"
     guidetolerance="10"
     inkscape:pageopacity="0"
     inkscape:pageshadow="2"
     inkscape:window-width="1920"
     inkscape:window-height="1012"
     id="namedview12"
     showgrid="false"
     inkscape:zoom="0.70710678"
     inkscape:cx="266.58791"
     inkscape:cy="324.74423"
     inkscape:window-x="-8"
     inkscape:window-y="-8"
     inkscape:window-maximized="1"
     inkscape:current-layer="svg10"
     showguides="true"
     inkscape:guide-bbox="true"
     inkscape:measure-start="25.1142,38.8047"
     inkscape:measure-end="25.1142,42.6253"
     inkscape:lockguides="false">
    <sodipodi:guide
       position="500,-0.07421875"
       orientation="1,0"
       id="guide4668"
       inkscape:locked="false" />
    <sodipodi:guide
       position="1000.2539,250.00781"
       orientation="0,1"
       id="guide4670"
       inkscape:locked="false" />
  </sodipodi:namedview>
  <title
     id="title2">Ticket</title>
  <desc
     id="desc4">A line styled icon from Orion Icon Library.</desc>
  <rect
     style="opacity:1;fill:#9b5c8f;fill-opacity:1;fill-rule:evenodd;stroke:none;stroke-width:1.99937022;stroke-linecap:square;stroke-linejoin:miter;stroke-miterlimit:10;stroke-dasharray:none;stroke-dashoffset:0;stroke-opacity:1;paint-order:normal"
     id="rect4658"
     width="1000"
     height="500"
     x="0"
     y="-5.9999998e-008"
     inkscape:export-xdpi="96"
     inkscape:export-ydpi="96" />
  <g
     id="g4610"
     transform="matrix(7.3781627,0,0,7.3781627,137.9422,-100.12763)"
     style="stroke-width:0.13553509"
     inkscape:export-xdpi="96"
     inkscape:export-ydpi="96" />
  <g
     id="g841"
     transform="matrix(0.99999881,0,0,0.99999881,6.0006003,-338.00483)"
     style="stroke-width:1.00000119">
    <path
       inkscape:connector-curvature="0"
       id="path6"
       style="clip-rule:evenodd;fill:#ffffff;fill-opacity:1;fill-rule:evenodd;stroke-width:0.94169915;stroke-linejoin:round;stroke-miterlimit:1.41420996"
       d="m 175.37681,519.44438 h 187.49207 c 11.8654,0 21.47072,9.60532 21.47072,21.47072 v 71.56904 c 0,11.8654 -9.60532,21.47072 -21.47072,21.47072 h -67.23723 l 9.22864,22.60075 -40.58719,-22.60075 h -88.80212 c -11.86539,0 -21.47071,-9.60532 -21.47071,-21.47072 V 540.9151 c -0.0942,-11.77123 9.51115,-21.47072 21.37654,-21.47072 z" />
    <path
       inkscape:connector-curvature="0"
       id="path8"
       style="clip-rule:evenodd;fill:#9b5c8f;fill-opacity:1;fill-rule:nonzero;stroke-width:0.94169915;stroke-linejoin:round;stroke-miterlimit:1.41420996"
       d="m 165.48898,538.93753 c 1.31838,-1.78923 3.29595,-2.73092 5.9327,-2.91926 4.80266,-0.37668 7.53359,1.88339 8.19277,6.78022 2.91927,19.68149 6.12104,36.34955 9.51115,50.00417 l 20.62319,-39.26881 c 1.8834,-3.57845 4.23764,-5.46185 7.06273,-5.65019 4.14348,-0.28251 6.68606,2.35425 7.72193,7.91027 2.35424,12.52458 5.36768,23.16577 8.94613,32.20607 2.44841,-23.91913 6.59189,-41.15221 12.43041,-51.79339 1.41255,-2.63676 3.48429,-3.95513 6.21521,-4.14347 2.1659,-0.18834 4.14347,0.47084 5.9327,1.88339 1.78922,1.41255 2.73092,3.20177 2.91926,5.36768 0.0942,1.69506 -0.18834,3.1076 -0.9417,4.52015 -3.67262,6.78023 -6.68605,18.17477 -9.13447,33.9953 -2.35424,15.34968 -3.20177,27.30924 -2.63675,35.87869 0.18834,2.35425 -0.18834,4.42598 -1.13004,6.21521 -1.13004,2.07173 -2.82509,3.20177 -4.991,3.39011 -2.44841,0.18834 -4.991,-0.9417 -7.43941,-3.48428 -8.75779,-8.94613 -15.72636,-22.31824 -20.81153,-40.11634 -6.12104,12.05374 -10.64119,21.09404 -13.56045,27.12091 -5.55602,10.64118 -10.26451,16.10303 -14.21964,16.38554 -2.54258,0.18834 -4.70849,-1.97757 -6.59189,-6.49771 -4.80266,-12.33625 -9.98199,-36.16121 -15.53801,-71.47488 -0.28251,-2.44842 0.18834,-4.61432 1.50671,-6.30938 z" />
    <path
       inkscape:connector-curvature="0"
       id="path10"
       style="clip-rule:evenodd;fill:#9b5c8f;fill-opacity:1;fill-rule:nonzero;stroke-width:0.94169915;stroke-linejoin:round;stroke-miterlimit:1.41420996"
       d="m 367.95405,553.72219 c -3.39011,-5.9327 -8.38111,-9.51115 -15.06717,-10.9237 -1.78922,-0.37668 -3.48428,-0.56502 -5.08517,-0.56502 -9.0403,0 -16.38554,4.70849 -22.1299,14.12547 -4.89683,8.00444 -7.34524,16.8564 -7.34524,26.55589 0,7.25107 1.50671,13.46628 4.52015,18.64562 3.39011,5.9327 8.38111,9.51115 15.06717,10.92369 1.78922,0.37668 3.48428,0.56502 5.08517,0.56502 9.13447,0 16.47971,-4.70849 22.1299,-14.12547 4.89683,-8.0986 7.34524,-16.95056 7.34524,-26.65005 0,-7.34524 -1.50671,-13.46628 -4.52015,-18.55145 z m -11.86539,26.08503 c -1.31838,6.21521 -3.67262,10.82953 -7.15691,13.93713 -2.73092,2.44842 -5.27351,3.48429 -7.62775,3.01344 -2.26008,-0.47085 -4.14347,-2.44842 -5.55602,-6.12104 -1.13004,-2.91926 -1.69506,-5.83853 -1.69506,-8.56945 0,-2.35425 0.18834,-4.70849 0.65919,-6.8744 0.84753,-3.86096 2.44842,-7.62775 4.991,-11.2062 3.10761,-4.61432 6.40355,-6.49772 9.79366,-5.83853 2.26008,0.47085 4.14347,2.44842 5.55602,6.12104 1.13004,2.91926 1.69506,5.83852 1.69506,8.56945 0,2.44841 -0.28251,4.80266 -0.65919,6.96856 z" />
    <path
       inkscape:connector-curvature="0"
       id="path12"
       style="clip-rule:evenodd;fill:#9b5c8f;fill-opacity:1;fill-rule:nonzero;stroke-width:0.94169915;stroke-linejoin:round;stroke-miterlimit:1.41420996"
       d="m 308.90959,553.72219 c -3.39012,-5.9327 -8.47528,-9.51115 -15.06717,-10.9237 -1.78923,-0.37668 -3.48428,-0.56502 -5.08517,-0.56502 -9.0403,0 -16.38554,4.70849 -22.1299,14.12547 -4.89683,8.00444 -7.34525,16.8564 -7.34525,26.55589 0,7.25107 1.50672,13.46628 4.52015,18.64562 3.39012,5.9327 8.38112,9.51115 15.06717,10.92369 1.78923,0.37668 3.48428,0.56502 5.08517,0.56502 9.13447,0 16.47972,-4.70849 22.1299,-14.12547 4.89683,-8.0986 7.34525,-16.95056 7.34525,-26.65005 0,-7.34524 -1.50672,-13.46628 -4.52015,-18.55145 z m -11.8654,26.08503 c -1.31837,6.21521 -3.67262,10.82953 -7.1569,13.93713 -2.73093,2.44842 -5.27351,3.48429 -7.62776,3.01344 -2.26007,-0.47085 -4.14347,-2.44842 -5.55601,-6.12104 -1.13004,-2.91926 -1.69506,-5.83853 -1.69506,-8.56945 0,-2.35425 0.18834,-4.70849 0.65919,-6.8744 0.84753,-3.86096 2.44841,-7.62775 4.991,-11.2062 3.1076,-4.61432 6.40354,-6.49772 9.79366,-5.83853 2.26007,0.47085 4.14347,2.44842 5.55601,6.12104 1.13004,2.91926 1.69506,5.83852 1.69506,8.56945 0,2.44841 -0.18834,4.80266 -0.65919,6.96856 z" />
    <path
       inkscape:connector-curvature="0"
       id="path14"
       style="clip-rule:evenodd;fill:#ffffff;fill-opacity:1;fill-rule:nonzero;stroke-width:0.94169915;stroke-linejoin:round;stroke-miterlimit:1.41420996"
       d="m 408.16456,552.87466 c -6.30938,6.21521 -9.41698,14.12547 -9.41698,23.73079 0,10.26451 3.1076,18.64562 9.32281,24.955 6.2152,6.30937 14.31381,9.51115 24.38998,9.51115 2.91926,0 6.2152,-0.47085 9.79365,-1.50672 v -15.25551 c -3.29594,0.9417 -6.12103,1.41255 -8.56945,1.41255 -4.991,0 -8.94613,-1.69506 -11.95956,-4.991 -3.01344,-3.39011 -4.52015,-7.91026 -4.52015,-13.65462 0,-5.36768 1.50671,-9.79366 4.42598,-13.18377 3.01343,-3.48428 6.68605,-5.17934 11.2062,-5.17934 2.91927,0 6.02687,0.47085 9.41698,1.41255 v -15.25551 c -3.1076,-0.84753 -6.59188,-1.22421 -10.2645,-1.22421 -9.60532,-0.0942 -17.51559,3.01343 -23.82496,9.22864 z m 65.35384,-9.32281 c -8.66362,0 -15.44385,2.91927 -20.34068,8.66362 -4.89683,5.74436 -7.25107,13.84296 -7.25107,24.20164 0,11.20621 2.44841,19.77566 7.25107,25.70836 4.80266,5.93269 11.8654,8.94613 21.09404,8.94613 8.94613,0 15.82052,-3.01344 20.62318,-8.94613 4.80266,-5.9327 7.25108,-14.31381 7.25108,-25.04917 0,-10.73536 -2.44842,-19.0223 -7.34525,-24.86083 -4.991,-5.74435 -12.05373,-8.66362 -21.28237,-8.66362 z m 7.43941,48.9683 c -1.69505,2.63675 -4.23764,3.95513 -7.43941,3.95513 -3.01344,0 -5.27351,-1.31838 -6.8744,-3.95513 -1.60088,-2.63676 -2.35424,-7.91027 -2.35424,-15.9147 0,-12.33624 3.1076,-18.45728 9.41698,-18.45728 6.59188,0 9.982,6.21521 9.982,18.73979 -0.0942,7.72192 -1.03587,12.99543 -2.73093,15.63219 z m 67.70809,-47.17907 -3.39011,14.40798 c -0.84753,3.67262 -1.69506,7.43941 -2.44842,11.30037 l -1.8834,9.982 c -1.78922,-9.982 -4.23764,-21.84739 -7.34524,-35.69035 h -21.84739 l -8.19278,64.12963 h 16.38555 l 4.42598,-44.16563 11.20621,44.16563 h 11.67705 l 10.73536,-44.07147 4.61432,44.07147 h 17.1389 l -8.66362,-64.12963 z m 78.44344,0 -3.39011,14.40798 c -0.84753,3.67262 -1.69506,7.43941 -2.44842,11.30037 l -1.88339,9.982 c -1.78923,-9.982 -4.23764,-21.84739 -7.34525,-35.69035 h -21.84739 l -8.19277,64.12963 h 16.38554 l 4.42598,-44.16563 11.20621,44.16563 h 11.67705 l 10.64119,-44.07147 4.61432,44.07147 h 17.13891 l -8.66363,-64.12963 z m 53.30011,38.79796 h 15.34968 v -13.27795 h -15.34968 v -11.77122 h 17.70392 v -13.65462 h -35.03116 v 64.12963 h 35.12533 V 595.91026 H 680.40945 Z M 746.9875,573.9687 c 1.78922,-2.91927 2.73092,-5.9327 2.73092,-9.0403 0,-6.02687 -2.35424,-10.82953 -7.06273,-14.31381 -4.70849,-3.48429 -11.20621,-5.27351 -19.30481,-5.27351 h -20.15234 v 64.12963 h 17.32724 v -29.19264 h 0.28251 l 14.0313,29.19264 h 18.26894 l -13.84296,-28.91013 c 3.29595,-1.50671 5.9327,-3.67262 7.72193,-6.59188 z m -26.55589,-1.03587 v -15.25551 c 4.14347,0.0942 7.06274,0.75336 8.85196,2.07174 1.78923,1.31837 2.63676,3.39011 2.63676,6.40354 0,4.42598 -3.86096,6.68606 -11.48872,6.78023 z m 39.45715,-20.05817 c -6.30938,6.21521 -9.41698,14.12547 -9.41698,23.73079 0,10.26451 3.1076,18.64562 9.32281,24.955 6.21521,6.30937 14.31381,9.51115 24.38998,9.51115 2.91926,0 6.2152,-0.47085 9.79366,-1.50672 v -15.25551 c -3.29595,0.9417 -6.12104,1.41255 -8.56945,1.41255 -4.991,0 -8.94614,-1.69506 -11.95957,-4.991 -3.01343,-3.39011 -4.52015,-7.91026 -4.52015,-13.65462 0,-5.36768 1.50672,-9.79366 4.42598,-13.18377 3.01343,-3.48428 6.68606,-5.17934 11.20621,-5.17934 2.91926,0 6.02686,0.47085 9.41698,1.41255 v -15.25551 c -3.10761,-0.84753 -6.59189,-1.22421 -10.26451,-1.22421 -9.51115,-0.0942 -17.51558,3.01343 -23.82496,9.22864 z m 56.21937,42.84726 v -11.67705 h 15.34968 V 570.76692 H 816.10813 V 558.9957 h 17.79809 v -13.65462 h -35.03116 v 64.12963 h 35.12533 v -13.65462 h -17.89226 z" />
  </g>
</svg>
